<?xml version="1.0" standalone="no"?>
<!DOCTYPE svg PUBLIC "-//W3C//DTD SVG 20010904//EN"
 "http://www.w3.org/TR/2001/REC-SVG-20010904/DTD/svg10.dtd">
<svg version="1.0" xmlns="http://www.w3.org/2000/svg"
 width="880.000000pt" height="880.000000pt" viewBox="0 0 880.000000 880.000000"
 preserveAspectRatio="xMidYMid meet">
<metadata>
Created by potrace 1.14, written by Peter Selinger 2001-2017
</metadata>
<g transform="translate(0.000000,880.000000) scale(0.100000,-0.100000)"
fill="#000000" stroke="none">
<path d="M1149 8796 c-2 -2 -22 -7 -44 -10 -64 -10 -76 -13 -150 -36 -38 -13
-76 -27 -82 -33 -7 -5 -13 -7 -13 -3 0 7 -80 -33 -102 -52 -10 -8 -18 -12 -18
-8 0 7 -72 -42 -120 -80 -26 -20 -154 -148 -175 -174 -79 -98 -171 -284 -190
-386 -2 -10 -4 -19 -5 -19 -3 0 -10 -38 -13 -65 -2 -14 -6 -30 -10 -37 -10
-15 -4 -6992 6 -7023 4 -14 10 -36 13 -50 16 -82 104 -300 126 -308 4 -2 8 -8
8 -13 0 -32 163 -214 254 -283 135 -104 296 -172 481 -204 59 -10 6541 -9
6600 2 108 18 353 111 363 138 2 4 8 8 13 8 27 0 227 176 274 241 6 8 23 31
38 52 57 75 145 278 161 367 3 14 5 25 6 25 16 0 23 6952 8 7060 -11 70 -15
90 -41 174 -9 29 -21 59 -26 65 -5 6 -9 15 -9 19 0 10 -53 120 -62 127 -3 3
-17 23 -30 45 -35 57 -46 70 -125 150 -79 79 -101 98 -164 139 -117 76 -277
142 -358 148 -7 1 -13 4 -13 7 0 3 -10 8 -22 10 -32 5 -6574 12 -6579 7z"/>
</g>
</svg>
